<?xml version="1.0"?><svg width="394.664" height="558.055" xmlns="http://www.w3.org/2000/svg" xmlns:xlink="http://www.w3.org/1999/xlink">
 <g>
  <title>Layer 1</title>
  <path fill="#D1D3D4" d="m159.912994,201.462997c46.575012,34.697006 81.758011,46.492996 113.893005,40.593002c32.135986,-5.895996 43.343994,-20.908005 51.145996,-43.533997c7.79599,-22.623001 -3.806,-55.900009 -3.806,-55.900009l3.64798,1.539993c0.02002,0.054001 8.407013,20.434006 8.07901,43.782013c-0.328003,23.455002 -13.368988,56.591003 -48.77301,68.401001c-29.502991,9.839996 -60.631989,-2.016006 -84.553986,-14.339005c-23.979004,-12.356995 -40.692001,-27.126999 -40.738007,-27.166992l1.105011,-13.376007" id="svg_1"/>
  <g id="svg_2">
   <defs>
    <path id="XMLID_1_" d="m159.912994,201.462997c46.575012,34.697006 81.758011,46.492996 113.893005,40.593002c32.135986,-5.895996 43.343994,-20.908005 51.145996,-43.533997c7.79599,-22.623001 -3.806,-55.900009 -3.806,-55.900009l3.64798,1.539993c0.02002,0.054001 8.407013,20.434006 8.07901,43.782013c-0.328003,23.455002 -13.368988,56.591003 -48.77301,68.401001c-29.502991,9.839996 -60.631989,-2.016006 -84.553986,-14.339005c-23.979004,-12.356995 -40.692001,-27.126999 -40.738007,-27.166992l1.105011,-13.376007"/>
   </defs>
   <clipPath id="XMLID_33_">
    <use xlink:href="#XMLID_1_" id="svg_3"/>
   </clipPath>
   <rect x="267.176" y="234.331" clip-path="url(#XMLID_33_)" fill="#FFFFFF" width="15.846" height="35.684" id="svg_4"/>
  </g>
  <g id="svg_5">
   <defs>
    <polyline id="XMLID_3_" points="308.499,78.451 322.073,80.844 279.638,321.547 266.063,319.15 308.499,78.451   "/>
   </defs>
   <clipPath id="XMLID_34_">
    <use xlink:href="#XMLID_3_" id="svg_6"/>
   </clipPath>
   <g clip-path="url(#XMLID_34_)" id="svg_7">
    <defs>
     <path id="XMLID_5_" d="m159.912994,201.462997c46.575012,34.697006 81.758011,46.492996 113.893005,40.593002c32.135986,-5.895996 43.343994,-20.908005 51.145996,-43.533997c7.79599,-22.623001 -3.806,-55.900009 -3.806,-55.900009l3.64798,1.539993c0.02002,0.054001 8.407013,20.434006 8.07901,43.782013c-0.328003,23.455002 -13.368988,56.591003 -48.77301,68.401001c-29.502991,9.839996 -60.631989,-2.016006 -84.553986,-14.339005c-23.979004,-12.356995 -40.692001,-27.126999 -40.738007,-27.166992l1.105011,-13.376007"/>
    </defs>
    <clipPath id="XMLID_35_">
     <use xlink:href="#XMLID_5_" id="svg_8"/>
    </clipPath>
    <polyline clip-path="url(#XMLID_35_)" fill="#6D6F71" points="268.327,319.539 266.063,319.141 308.509,78.443 310.771,78.842       " id="svg_9"/>
    <polyline clip-path="url(#XMLID_35_)" fill="#808284" points="270.59,319.938 268.327,319.539 310.771,78.842 313.034,79.24   " id="svg_10"/>
    <polyline clip-path="url(#XMLID_35_)" fill="#939598" points="272.854,320.338 270.59,319.938 313.034,79.24 315.297,79.64   " id="svg_11"/>
    <polyline clip-path="url(#XMLID_35_)" fill="#A7A9AC" points="275.118,320.736 272.854,320.338 315.297,79.64 317.558,80.041       " id="svg_12"/>
    <polyline clip-path="url(#XMLID_35_)" fill="#BCBEC0" points="277.379,321.138 275.118,320.736 317.558,80.041 319.821,80.438       " id="svg_13"/>
    <polyline clip-path="url(#XMLID_35_)" fill="#D1D3D4" points="279.642,321.537 277.379,321.138 319.821,80.438 322.086,80.837       " id="svg_14"/>
   </g>
  </g>
  <g id="svg_15">
   <defs>
    <polyline id="XMLID_7_" points="288.964,78.451 302.537,80.844 260.1,321.547 246.524,319.15 288.964,78.451   "/>
   </defs>
   <clipPath id="XMLID_36_">
    <use xlink:href="#XMLID_7_" id="svg_16"/>
   </clipPath>
   <g clip-path="url(#XMLID_36_)" id="svg_17">
    <defs>
     <path id="XMLID_9_" d="m159.912994,201.462997c46.575012,34.697006 81.758011,46.492996 113.893005,40.593002c32.135986,-5.895996 43.343994,-20.908005 51.145996,-43.533997c7.79599,-22.623001 -3.806,-55.900009 -3.806,-55.900009l3.64798,1.539993c0.02002,0.054001 8.407013,20.434006 8.07901,43.782013c-0.328003,23.455002 -13.368988,56.591003 -48.77301,68.401001c-29.502991,9.839996 -60.631989,-2.016006 -84.553986,-14.339005c-23.979004,-12.356995 -40.692001,-27.126999 -40.738007,-27.166992l1.105011,-13.376007"/>
    </defs>
    <clipPath id="XMLID_37_">
     <use xlink:href="#XMLID_9_" id="svg_18"/>
    </clipPath>
    <polyline clip-path="url(#XMLID_37_)" fill="#6D6F71" points="300.27,80.451 302.531,80.849 260.09,321.549 257.825,321.149   " id="svg_19"/>
    <polyline clip-path="url(#XMLID_37_)" fill="#808284" points="298.006,80.053 300.27,80.451 257.825,321.149 255.562,320.751       " id="svg_20"/>
    <polyline clip-path="url(#XMLID_37_)" fill="#939598" points="295.738,79.654 298.006,80.053 255.562,320.751 253.299,320.35       " id="svg_21"/>
    <polyline clip-path="url(#XMLID_37_)" fill="#A7A9AC" points="293.479,79.256 295.738,79.654 253.299,320.35 251.037,319.95   " id="svg_22"/>
    <polyline clip-path="url(#XMLID_37_)" fill="#BCBEC0" points="291.215,78.854 293.479,79.256 251.037,319.95 248.773,319.552       " id="svg_23"/>
    <polyline clip-path="url(#XMLID_37_)" fill="#D1D3D4" points="288.952,78.456 291.215,78.854 248.773,319.552 246.511,319.153       " id="svg_24"/>
   </g>
  </g>
  <g id="svg_25">
   <defs>
    <polyline id="XMLID_11_" points="208.387,15.168 221.962,17.562 179.522,258.263 165.949,255.872 208.387,15.168   "/>
   </defs>
   <clipPath id="XMLID_38_">
    <use xlink:href="#XMLID_11_" id="svg_26"/>
   </clipPath>
   <g clip-path="url(#XMLID_38_)" id="svg_27">
    <defs>
     <path id="XMLID_13_" d="m159.912994,201.462997c46.575012,34.697006 81.758011,46.492996 113.893005,40.593002c32.135986,-5.895996 43.343994,-20.908005 51.145996,-43.533997c7.79599,-22.623001 -3.806,-55.900009 -3.806,-55.900009l3.64798,1.539993c0.02002,0.054001 8.407013,20.434006 8.07901,43.782013c-0.328003,23.455002 -13.368988,56.591003 -48.77301,68.401001c-29.502991,9.839996 -60.631989,-2.016006 -84.553986,-14.339005c-23.979004,-12.356995 -40.692001,-27.126999 -40.738007,-27.166992l1.105011,-13.376007"/>
    </defs>
    <clipPath id="XMLID_39_">
     <use xlink:href="#XMLID_13_" id="svg_28"/>
    </clipPath>
    <polyline clip-path="url(#XMLID_39_)" fill="#6D6F71" points="168.217,256.275 165.956,255.876 208.399,15.178 210.66,15.577       " id="svg_29"/>
    <polyline clip-path="url(#XMLID_39_)" fill="#808284" points="170.477,256.674 168.217,256.275 210.66,15.577 212.92,15.979   " id="svg_30"/>
    <polyline clip-path="url(#XMLID_39_)" fill="#939598" points="172.74,257.073 170.477,256.674 212.92,15.979 215.178,16.375   " id="svg_31"/>
    <polyline clip-path="url(#XMLID_39_)" fill="#A7A9AC" points="175,257.469 172.74,257.073 215.178,16.375 217.441,16.775   " id="svg_32"/>
    <polyline clip-path="url(#XMLID_39_)" fill="#BCBEC0" points="177.26,257.868 175,257.469 217.441,16.775 219.699,17.174   " id="svg_33"/>
    <polyline clip-path="url(#XMLID_39_)" fill="#D1D3D4" points="179.52,258.268 177.26,257.868 219.699,17.174 221.962,17.572   " id="svg_34"/>
   </g>
  </g>
  <g id="svg_35">
   <defs>
    <polyline id="XMLID_15_" points="324.36,19.323 338.144,19.323 338.163,263.729 324.377,263.729 324.36,19.323   "/>
   </defs>
   <clipPath id="XMLID_40_">
    <use xlink:href="#XMLID_15_" id="svg_36"/>
   </clipPath>
   <g clip-path="url(#XMLID_40_)" id="svg_37">
    <defs>
     <path id="XMLID_17_" d="m159.912994,201.462997c46.575012,34.697006 81.758011,46.492996 113.893005,40.593002c32.135986,-5.895996 43.343994,-20.908005 51.145996,-43.533997c7.79599,-22.623001 -3.806,-55.900009 -3.806,-55.900009l3.64798,1.539993c0.02002,0.054001 8.407013,20.434006 8.07901,43.782013c-0.328003,23.455002 -13.368988,56.591003 -48.77301,68.401001c-29.502991,9.839996 -60.631989,-2.016006 -84.553986,-14.339005c-23.979004,-12.356995 -40.692001,-27.126999 -40.738007,-27.166992l1.105011,-13.376007"/>
    </defs>
    <clipPath id="XMLID_41_">
     <use xlink:href="#XMLID_17_" id="svg_38"/>
    </clipPath>
    <rect x="331.258" y="19.305" clip-path="url(#XMLID_41_)" fill="#939598" width="2.297" height="244.409" id="svg_39"/>
    <rect x="328.957" y="19.305" clip-path="url(#XMLID_41_)" fill="#A7A9AC" width="2.299" height="244.409" id="svg_40"/>
    <rect x="326.66" y="19.305" clip-path="url(#XMLID_41_)" fill="#BCBEC0" width="2.297" height="244.409" id="svg_41"/>
    <rect x="324.363" y="19.305" clip-path="url(#XMLID_41_)" fill="#D1D3D4" width="2.297" height="244.409" id="svg_42"/>
   </g>
  </g>
  <path fill="none" stroke="#000000" stroke-width="1.629" stroke-miterlimit="3.864" d="m159.912994,201.462997c46.575012,34.697006 81.758011,46.492996 113.893005,40.593002c32.135986,-5.895996 43.343994,-20.908005 51.145996,-43.533997c7.79599,-22.623001 -3.806,-55.900009 -3.806,-55.900009l3.64798,1.539993c0.02002,0.054001 8.407013,20.434006 8.07901,43.782013c-0.328003,23.455002 -13.368988,56.591003 -48.77301,68.401001c-29.502991,9.839996 -60.631989,-2.016006 -84.553986,-14.339005c-23.979004,-12.356995 -40.692001,-27.126999 -40.738007,-27.166992l1.105011,-13.376007z" id="svg_43"/>
  <circle cx="51.187" cy="285.597" r="44.454" id="svg_44"/>
  <circle fill="none" stroke="#000000" stroke-width="1.629" stroke-miterlimit="3.864" cx="51.187" cy="285.597" r="44.454" id="svg_45"/>
  <circle fill="#FFFFFF" cx="51.188" cy="283.969" r="40.898" id="svg_46"/>
  <circle fill="none" stroke="#000000" stroke-width="1.4978" stroke-miterlimit="3.864" cx="51.188" cy="283.969" r="40.898" id="svg_47"/>
  <g id="svg_48">
   <defs>
    <path id="XMLID_19_" d="m15.174,283.020996c0,-21.584991 17.498001,-39.085999 39.084999,-39.085999c21.588001,0 39.088001,17.501007 39.088001,39.085999c0,21.587006 -17.5,39.088013 -39.088001,39.088013c-21.586998,0 -39.084999,-17.501007 -39.084999,-39.088013"/>
   </defs>
   <clipPath id="XMLID_42_">
    <use xlink:href="#XMLID_19_" id="svg_49"/>
   </clipPath>
   <polyline clip-path="url(#XMLID_42_)" fill="#E7E7E8" points="62.786,230.126 64.811,228.76 108.526,293.569 106.5,294.938  " id="svg_50"/>
   <polyline clip-path="url(#XMLID_42_)" fill="#E3E4E5" points="60.76,231.492 62.786,230.126 106.5,294.938 104.476,296.304  " id="svg_51"/>
   <polyline clip-path="url(#XMLID_42_)" fill="#E1E2E3" points="58.732,232.858 60.76,231.492 104.476,296.304 102.451,297.67  " id="svg_52"/>
   <polyline clip-path="url(#XMLID_42_)" fill="#DEDFE1" points="56.708,234.224 58.732,232.858 102.451,297.67 100.422,299.033  " id="svg_53"/>
   <polyline clip-path="url(#XMLID_42_)" fill="#DBDCDD" points="54.683,235.59 56.708,234.224 100.422,299.033 98.397,300.401  " id="svg_54"/>
   <polyline clip-path="url(#XMLID_42_)" fill="#D9DADB" points="52.658,236.958 54.683,235.59 98.397,300.401 96.373,301.768  " id="svg_55"/>
   <polyline clip-path="url(#XMLID_42_)" fill="#D6D7D9" points="50.633,238.322 52.658,236.958 96.373,301.768 94.348,303.134  " id="svg_56"/>
   <polyline clip-path="url(#XMLID_42_)" fill="#D4D5D6" points="48.608,239.688 50.633,238.322 94.348,303.134 92.323,304.5  " id="svg_57"/>
   <polyline clip-path="url(#XMLID_42_)" fill="#D0D2D3" points="46.583,241.054 48.608,239.688 92.323,304.5 90.298,305.865  " id="svg_58"/>
   <polyline clip-path="url(#XMLID_42_)" fill="#CECFD1" points="44.557,242.422 46.583,241.054 90.298,305.865 88.272,307.231  " id="svg_59"/>
   <polyline clip-path="url(#XMLID_42_)" fill="#CBCDCF" points="42.532,243.788 44.557,242.422 88.272,307.231 86.248,308.598  " id="svg_60"/>
   <polyline clip-path="url(#XMLID_42_)" fill="#C8CACB" points="40.508,245.151 42.532,243.788 86.248,308.598 84.222,309.964  " id="svg_61"/>
   <polyline clip-path="url(#XMLID_42_)" fill="#C5C7C9" points="38.479,246.518 40.508,245.151 84.222,309.964 82.197,311.332  " id="svg_62"/>
   <polyline clip-path="url(#XMLID_42_)" fill="#C3C5C7" points="36.455,247.886 38.479,246.518 82.197,311.332 80.173,312.695  " id="svg_63"/>
   <polyline clip-path="url(#XMLID_42_)" fill="#C0C1C3" points="34.43,249.251 36.455,247.886 80.173,312.695 78.145,314.062  " id="svg_64"/>
   <polyline clip-path="url(#XMLID_42_)" fill="#BDBFC1" points="32.404,250.618 34.43,249.251 78.145,314.062 76.119,315.428  " id="svg_65"/>
   <polyline clip-path="url(#XMLID_42_)" fill="#BBBCBF" points="30.379,251.983 32.404,250.618 76.119,315.428 74.094,316.796  " id="svg_66"/>
   <polyline clip-path="url(#XMLID_42_)" fill="#B8BABC" points="28.354,253.35 30.379,251.983 74.094,316.796 72.069,318.161  " id="svg_67"/>
   <polyline clip-path="url(#XMLID_42_)" fill="#B5B7B9" points="26.33,254.715 28.354,253.35 72.069,318.161 70.044,319.525  " id="svg_68"/>
   <polyline clip-path="url(#XMLID_42_)" fill="#B2B4B7" points="24.305,256.082 26.33,254.715 70.044,319.525 68.019,320.892  " id="svg_69"/>
   <polyline clip-path="url(#XMLID_42_)" fill="#B0B2B4" points="22.278,257.447 24.305,256.082 68.019,320.892 65.995,322.26  " id="svg_70"/>
   <polyline clip-path="url(#XMLID_42_)" fill="#ADAFB1" points="20.254,258.813 22.278,257.447 65.995,322.26 63.97,323.625  " id="svg_71"/>
   <polyline clip-path="url(#XMLID_42_)" fill="#AAACAF" points="18.229,260.179 20.254,258.813 63.97,323.625 61.943,324.991  " id="svg_72"/>
   <polyline clip-path="url(#XMLID_42_)" fill="#A8AAAC" points="16.201,261.545 18.229,260.179 61.943,324.991 59.919,326.357  " id="svg_73"/>
   <polyline clip-path="url(#XMLID_42_)" fill="#A5A7A9" points="14.176,262.911 16.201,261.545 59.919,326.357 57.894,327.724  " id="svg_74"/>
   <polyline clip-path="url(#XMLID_42_)" fill="#A2A4A7" points="12.151,264.277 14.176,262.911 57.894,327.724 55.867,329.089  " id="svg_75"/>
   <polyline clip-path="url(#XMLID_42_)" fill="#A0A2A5" points="10.126,265.646 12.151,264.277 55.867,329.089 53.84,330.455  " id="svg_76"/>
   <polyline clip-path="url(#XMLID_42_)" fill="#9DA0A2" points="8.101,267.009 10.126,265.646 53.84,330.455 51.816,331.821  " id="svg_77"/>
   <polyline clip-path="url(#XMLID_42_)" fill="#9A9D9F" points="6.076,268.375 8.101,267.009 51.816,331.821 49.791,333.189  " id="svg_78"/>
   <polyline clip-path="url(#XMLID_42_)" fill="#989A9D" points="4.051,269.741 6.076,268.375 49.791,333.189 47.766,334.553  " id="svg_79"/>
   <polyline clip-path="url(#XMLID_42_)" fill="#96989B" points="2.026,271.11 4.051,269.741 47.766,334.553 45.741,335.919  " id="svg_80"/>
   <polyline clip-path="url(#XMLID_42_)" fill="#939598" points="0,272.476 2.026,271.11 45.741,335.919 43.716,337.285  " id="svg_81"/>
  </g>
  <circle fill="none" stroke="#000000" stroke-width="1.4978" stroke-miterlimit="3.864" cx="54.261" cy="283.021" r="39.087" id="svg_82"/>
  <circle fill="#FFFFFF" cx="53.629" cy="278.403" r="29.553" id="svg_83"/>
  <circle fill="none" stroke="#000000" stroke-width="1.629" stroke-miterlimit="3.864" cx="53.629" cy="278.403" r="29.553" id="svg_84"/>
  <g id="svg_85">
   <defs>
    <path id="XMLID_21_" d="m27.332001,278.454987c0,-15.083984 12.226997,-27.309998 27.309998,-27.309998c15.083,0 27.311005,12.226013 27.311005,27.309998c0,15.080994 -12.227005,27.30899 -27.311005,27.30899c-15.083,0.000031 -27.309998,-12.228973 -27.309998,-27.30899"/>
   </defs>
   <clipPath id="XMLID_43_">
    <use xlink:href="#XMLID_21_" id="svg_86"/>
   </clipPath>
   <polyline clip-path="url(#XMLID_43_)" fill="#939598" points="41.242,312.85 38.923,313.742 19.342,262.737 21.662,261.846  " id="svg_87"/>
   <polyline clip-path="url(#XMLID_43_)" fill="#989A9D" points="43.56,311.963 41.242,312.85 21.662,261.846 23.979,260.956  " id="svg_88"/>
   <polyline clip-path="url(#XMLID_43_)" fill="#9D9FA1" points="45.879,311.07 43.56,311.963 23.979,260.956 26.299,260.066  " id="svg_89"/>
   <polyline clip-path="url(#XMLID_43_)" fill="#A1A3A6" points="48.197,310.184 45.879,311.07 26.299,260.066 28.617,259.174  " id="svg_90"/>
   <polyline clip-path="url(#XMLID_43_)" fill="#A6A8AB" points="50.517,309.291 48.197,310.184 28.617,259.174 30.936,258.284  " id="svg_91"/>
   <polyline clip-path="url(#XMLID_43_)" fill="#ABADB0" points="52.833,308.401 50.517,309.291 30.936,258.284 33.255,257.397  " id="svg_92"/>
   <polyline clip-path="url(#XMLID_43_)" fill="#B0B2B4" points="55.154,307.513 52.833,308.401 33.255,257.397 35.573,256.504  " id="svg_93"/>
   <polyline clip-path="url(#XMLID_43_)" fill="#B5B7B9" points="57.471,306.623 55.154,307.513 35.573,256.504 37.893,255.613  " id="svg_94"/>
   <polyline clip-path="url(#XMLID_43_)" fill="#BABCBE" points="59.791,305.73 57.471,306.623 37.893,255.613 40.21,254.725  " id="svg_95"/>
   <polyline clip-path="url(#XMLID_43_)" fill="#BFC1C3" points="62.108,304.843 59.791,305.73 40.21,254.725 42.53,253.833  " id="svg_96"/>
   <polyline clip-path="url(#XMLID_43_)" fill="#C4C5C8" points="64.426,303.951 62.108,304.843 42.53,253.833 44.848,252.946  " id="svg_97"/>
   <polyline clip-path="url(#XMLID_43_)" fill="#C9CACC" points="66.746,303.061 64.426,303.951 44.848,252.946 47.167,252.054  " id="svg_98"/>
   <polyline clip-path="url(#XMLID_43_)" fill="#CECFD1" points="69.063,302.171 66.746,303.061 47.167,252.054 49.484,251.164  " id="svg_99"/>
   <polyline clip-path="url(#XMLID_43_)" fill="#D4D5D6" points="71.383,301.281 69.063,302.171 49.484,251.164 51.804,250.274  " id="svg_100"/>
   <polyline clip-path="url(#XMLID_43_)" fill="#D8D9DA" points="73.701,300.392 71.383,301.281 51.804,250.274 54.121,249.385  " id="svg_101"/>
   <polyline clip-path="url(#XMLID_43_)" fill="#DDDFE0" points="76.02,299.502 73.701,300.392 54.121,249.385 56.441,248.493  " id="svg_102"/>
   <polyline clip-path="url(#XMLID_43_)" fill="#E2E3E4" points="78.337,298.61 76.02,299.502 56.441,248.493 58.758,247.605  " id="svg_103"/>
   <polyline clip-path="url(#XMLID_43_)" fill="#E7E8E9" points="80.657,297.723 78.337,298.61 58.758,247.605 61.078,246.713  " id="svg_104"/>
   <polyline clip-path="url(#XMLID_43_)" fill="#EDEDEE" points="82.974,296.831 80.657,297.723 61.078,246.713 63.398,245.826  " id="svg_105"/>
   <polyline clip-path="url(#XMLID_43_)" fill="#F2F2F3" points="85.294,295.941 82.974,296.831 63.398,245.826 65.714,244.934  " id="svg_106"/>
   <polyline clip-path="url(#XMLID_43_)" fill="#F7F7F8" points="87.614,295.052 85.294,295.941 65.714,244.934 68.033,244.044  " id="svg_107"/>
   <polyline clip-path="url(#XMLID_43_)" fill="#FFFFFF" points="89.931,294.162 87.614,295.052 68.033,244.044 70.351,243.155  " id="svg_108"/>
  </g>
  <circle fill="none" stroke="#000000" stroke-width="1.629" stroke-miterlimit="3.864" cx="54.642" cy="278.455" r="27.31" id="svg_109"/>
  <g id="svg_110">
   <defs>
    <path id="XMLID_23_" d="m29.986,278.403015c0,-13.057983 10.585999,-23.641998 23.641998,-23.641998c13.058998,0 23.643005,10.583984 23.643005,23.641998c0,13.05899 -10.584007,23.64502 -23.643005,23.64502c-13.056,-0.000031 -23.641998,-10.586029 -23.641998,-23.64502"/>
   </defs>
   <clipPath id="XMLID_44_">
    <use xlink:href="#XMLID_23_" id="svg_111"/>
   </clipPath>
   <path clip-path="url(#XMLID_44_)" fill="#E7E7E8" d="m79.287003,278.39801l0,0c0,14.165009 -11.498001,25.65799 -25.659004,25.65799c-14.161999,0 -25.656998,-11.492981 -25.656998,-25.65799c0,-14.161987 11.494999,-25.656006 25.656998,-25.656006c14.161003,0.000992 25.659004,11.493988 25.659004,25.656006m2.723999,-0.096008c0,-15.651001 -12.704002,-28.356003 -28.357002,-28.356003c-15.653999,0 -28.358999,12.705002 -28.358999,28.356003c0,15.653992 12.705,28.359009 28.358999,28.359009c15.653,0 28.357002,-12.705017 28.357002,-28.359009" id="svg_112"/>
   <path clip-path="url(#XMLID_44_)" fill="#D9DBDC" d="m76.584999,278.39801l0,0c0,12.674011 -10.285995,22.958008 -22.957001,22.958008c-12.672997,0 -22.956999,-10.283997 -22.956999,-22.958008c0,-12.670013 10.282999,-22.955994 22.956999,-22.955994c12.671005,0.000977 22.957001,10.28598 22.957001,22.955994m2.725998,-0.096008c0,-14.161987 -11.494995,-25.654999 -25.656998,-25.654999c-14.163998,0 -25.658998,11.493011 -25.658998,25.654999c0,14.165009 11.495001,25.65799 25.658998,25.65799c14.162003,0 25.656998,-11.492981 25.656998,-25.65799" id="svg_113"/>
   <path clip-path="url(#XMLID_44_)" fill="#CDCED0" d="m73.884003,278.39801l0,0c0,11.182007 -9.076004,20.257996 -20.256004,20.257996c-11.182999,0 -20.258999,-9.075989 -20.258999,-20.257996s9.076,-20.253998 20.258999,-20.253998c11.18,0 20.256004,9.072998 20.256004,20.253998m2.725998,0.053986c0,-12.673004 -10.285004,-22.957993 -22.957001,-22.957993c-12.673,0 -22.958,10.284988 -22.958,22.957993c0,12.673004 10.285,22.955017 22.958,22.955017c12.672997,0 22.957001,-10.282013 22.957001,-22.955017" id="svg_114"/>
   <path clip-path="url(#XMLID_44_)" fill="#C0C2C4" d="m71.182999,278.39801l0,0c0,9.690002 -7.864998,17.558014 -17.555,17.558014c-9.691998,0 -17.556999,-7.867004 -17.556999,-17.558014c0,-9.688995 7.865002,-17.553986 17.556999,-17.553986c9.690002,-0.000031 17.555,7.86499 17.555,17.553986m2.724998,0.053986c0,-11.18399 -9.075996,-20.257996 -20.253998,-20.257996c-11.182999,0 -20.257,9.074005 -20.257,20.257996c0,11.179016 9.074001,20.255005 20.257,20.255005c11.179001,0 20.253998,-9.075989 20.253998,-20.255005" id="svg_115"/>
   <path clip-path="url(#XMLID_44_)" fill="#B3B5B7" d="m68.482002,278.39801l0,0c0,8.200989 -6.655003,14.854004 -14.854004,14.854004c-8.202,0 -14.855999,-6.653015 -14.855999,-14.854004c0,-8.197998 6.653999,-14.854004 14.855999,-14.854004c8.199001,0.001007 14.854004,6.656982 14.854004,14.854004m2.725998,0.053986c0,-9.690002 -7.866001,-17.554993 -17.554001,-17.554993c-9.689999,0 -17.556,7.863983 -17.556,17.554993c0,9.688995 7.866001,17.554993 17.556,17.554993c9.688,0 17.554001,-7.86499 17.554001,-17.554993" id="svg_116"/>
   <path clip-path="url(#XMLID_44_)" fill="#A7A9AC" d="m65.780998,278.39801l0,0c0,6.709991 -5.445999,12.153992 -12.153,12.153992c-6.708,0 -12.155998,-5.444 -12.155998,-12.153992c0,-6.708008 5.446999,-12.149994 12.155998,-12.149994c6.707001,-0.000031 12.153,5.441986 12.153,12.149994m2.578003,0.053986c0,-8.199982 -6.655003,-14.854004 -14.854,-14.854004c-8.199001,0 -14.854,6.654022 -14.854,14.854004c0,8.197998 6.654999,14.854004 14.854,14.854004c8.198997,0 14.854,-6.656006 14.854,-14.854004" id="svg_117"/>
   <path clip-path="url(#XMLID_44_)" fill="#9B9DA0" d="m63.080002,278.39801l0,0c0,5.220001 -4.235001,9.453003 -9.452003,9.453003c-5.217999,0 -9.453999,-4.233002 -9.453999,-9.453003c0,-5.21701 4.236,-9.450012 9.453999,-9.450012c5.216003,0 9.452003,4.234009 9.452003,9.450012m2.725998,0.053986c0,-6.708984 -5.443001,-12.153992 -12.152,-12.153992c-6.709,0 -12.153,5.444 -12.153,12.153992c0,6.709015 5.444,12.153015 12.153,12.153015c6.708,0 12.152,-5.444 12.152,-12.153015" id="svg_118"/>
   <path clip-path="url(#XMLID_44_)" fill="#8F9194" d="m60.379002,278.39801l0,0c0,3.726013 -3.025002,6.752991 -6.751003,6.752991c-3.727997,0 -6.752998,-3.026978 -6.752998,-6.752991c0,-3.727997 3.026001,-6.75 6.752998,-6.75c3.726002,0.000977 6.751003,3.02298 6.751003,6.75m2.725998,0.053986c0,-5.220001 -4.232998,-9.453003 -9.452,-9.453003c-5.220001,0 -9.452999,4.233002 -9.452999,9.453003c0,5.21701 4.232998,9.450012 9.452999,9.450012c5.219002,0 9.452,-4.233002 9.452,-9.450012" id="svg_119"/>
   <path clip-path="url(#XMLID_44_)" fill="#848688" d="m57.679001,278.39801l0,0c0,2.237 -1.815002,4.052002 -4.051003,4.052002c-2.237,0 -4.051998,-1.815002 -4.051998,-4.052002c0,-2.233002 1.813999,-4.050995 4.051998,-4.050995c2.235001,-0.000031 4.051003,1.817993 4.051003,4.050995m2.724998,0.053986c0,-3.729004 -3.024998,-6.752991 -6.75,-6.752991c-3.729,0 -6.751999,3.023987 -6.751999,6.752991c0,3.725006 3.021999,6.75 6.751999,6.75c3.725002,0 6.75,-3.024994 6.75,-6.75" id="svg_120"/>
   <path clip-path="url(#XMLID_44_)" fill="#797A7D" d="m54.977001,278.39801l0,0c0,0.747986 -0.604,1.348999 -1.349003,1.348999c-0.746998,0 -1.351997,-0.60199 -1.351997,-1.348999c0,-0.743988 0.605,-1.351013 1.351997,-1.351013c0.746002,0 1.349003,0.606995 1.349003,1.351013m2.725998,-0.096008c0,-2.234009 -1.813999,-4.049011 -4.049,-4.049011c-2.237,0 -4.050999,1.815002 -4.050999,4.049011c0,2.237 1.813999,4.052002 4.050999,4.052002c2.234001,0 4.049,-1.815002 4.049,-4.052002" id="svg_121"/>
   <path clip-path="url(#XMLID_44_)" fill="#6D6F71" d="m55.001999,278.302002c0,-0.743988 -0.604,-1.351013 -1.348999,-1.351013c-0.747002,0 -1.351002,0.607025 -1.351002,1.351013c0,0.747009 0.604,1.35199 1.351002,1.35199c0.744999,0 1.348999,-0.60498 1.348999,-1.35199" id="svg_122"/>
  </g>
  <circle fill="none" stroke="#000000" stroke-width="1.629" stroke-miterlimit="3.864" cx="53.628" cy="278.403" r="23.643" id="svg_123"/>
  <g id="svg_124">
   <defs>
    <polyline id="XMLID_25_" points="53.635,306.743 44,333.923 31.726,329.567 41.361,302.392 53.635,306.743   "/>
   </defs>
   <clipPath id="XMLID_45_">
    <use xlink:href="#XMLID_25_" id="svg_125"/>
   </clipPath>
   <polyline clip-path="url(#XMLID_45_)" points="51.529,305.486 53.805,306.183 45.214,334.282 42.937,333.586  " id="svg_126"/>
   <polyline clip-path="url(#XMLID_45_)" fill="#4F5051" points="49.253,304.789 51.529,305.486 42.937,333.586 40.661,332.893  " id="svg_127"/>
   <polyline clip-path="url(#XMLID_45_)" fill="#717375" points="46.979,304.094 49.253,304.789 40.661,332.893 38.386,332.196  " id="svg_128"/>
   <polyline clip-path="url(#XMLID_45_)" fill="#8F9194" points="44.701,303.399 46.979,304.094 38.386,332.196 36.109,331.5  " id="svg_129"/>
   <polyline clip-path="url(#XMLID_45_)" fill="#AFB1B4" points="42.426,302.703 44.701,303.399 36.109,331.5 33.835,330.804  " id="svg_130"/>
   <polyline clip-path="url(#XMLID_45_)" fill="#D1D3D4" points="40.151,302.007 42.426,302.703 33.835,330.804 31.56,330.109  " id="svg_131"/>
  </g>
  <rect x="28.262" y="311.643" transform="matrix(0.3341 -0.9425 0.9425 0.3341 -271.4517 252.083)" fill="none" stroke="#000000" stroke-width="1.629" stroke-miterlimit="3.864" width="28.837" height="13.024" id="svg_132"/>
  <path fill="#FFFFFF" d="m145.210007,22.162001c0,0 10.139999,0.640999 12.064011,14.307001c1.922989,13.665997 -0.962006,13.343998 -0.962006,13.343998s-11.425995,6.264999 -29.575005,8.856998c-4.487,0.642002 -8.855995,-8.656998 -10.136993,-12.382999c-1.283005,-3.725998 -3.088005,-9.176998 1.601997,-12.062c4.687988,-2.885998 15.587982,-8.856998 27.007996,-12.062998" id="svg_133"/>
  <g id="svg_134">
   <defs>
    <path id="XMLID_27_" d="m145.210007,22.162001c0,0 10.139999,0.640999 12.064011,14.307001c1.922989,13.665997 -0.962006,13.343998 -0.962006,13.343998s-11.425995,6.264999 -29.575005,8.856998c-4.487,0.642002 -8.855995,-8.656998 -10.136993,-12.382999c-1.283005,-3.725998 -3.088005,-9.176998 1.601997,-12.062c4.687988,-2.885998 15.587982,-8.856998 27.007996,-12.062998"/>
   </defs>
   <clipPath id="XMLID_46_">
    <use xlink:href="#XMLID_27_" id="svg_135"/>
   </clipPath>
   <path clip-path="url(#XMLID_46_)" fill="none" stroke="#000000" stroke-width="1.629" stroke-miterlimit="3.864" d="m142.007004,23.791c0,0 10.084991,0.642 12.009003,14.307999c1.923996,13.662003 -0.960007,13.342003 -0.960007,13.342003" id="svg_136"/>
  </g>
  <path d="m320.924988,135.968002c0.020996,0.054001 8.43399,20.43399 8.104004,43.781998c-0.328003,23.453995 -9.523987,50.132004 -44.929016,61.944c-29.502991,9.839005 -61.039978,-0.279999 -84.962982,-12.604996c-23.979004,-12.353012 -40.693008,-27.122009 -40.736008,-27.162003l2.218002,-2.425995c0,0 4.104004,3.625 11.152008,8.768997c29.852997,21.791 73.519989,42.923996 111.259003,30.334991c42.787994,-14.272995 48.169983,-52.530991 38.862,-88.679001c-2.003998,-7.780991 -4.046021,-12.729996 -4.046021,-12.729996l3.07901,-1.227997" id="svg_138"/>
  <path fill="#D1D3D4" d="m114.676003,41.278999c2.124001,0 -26.368004,8.855999 -35.868004,34.264c-7.836998,20.966003 25.574005,91.266998 116.100998,186.281006l7.729004,-12.161011c-90.527,-95.016998 -122.548004,-154.164993 -112.407997,-174.121002c10.137993,-19.958004 31.697998,-23.166 29.574997,-23.166c0,0 2.002998,-3.646004 0.841003,-7.050003c-1.162003,-3.405998 -5.970001,-4.046997 -5.970001,-4.046997" id="svg_139"/>
  <g id="svg_140">
   <defs>
    <path id="XMLID_29_" d="m114.676003,41.278999c2.124001,0 -26.368004,8.855999 -35.868004,34.264c-7.836998,20.966003 25.574005,91.266998 116.100998,186.281006l7.729004,-12.161011c-90.527,-95.016998 -122.548004,-154.164993 -112.407997,-174.121002c10.137993,-19.958004 31.697998,-23.166 29.574997,-23.166c0,0 2.002998,-3.646004 0.841003,-7.050003c-1.162003,-3.405998 -5.970001,-4.046997 -5.970001,-4.046997"/>
   </defs>
   <clipPath id="XMLID_47_">
    <use xlink:href="#XMLID_29_" id="svg_141"/>
   </clipPath>
   <path clip-path="url(#XMLID_47_)" fill="#FFFFFF" d="m98.431,130.705002c0,0 37.343002,68.542999 95.686005,124.028l2.821991,-3.988998c0,-0.001007 -52.658997,-46.977997 -98.507996,-120.039001" id="svg_142"/>
  </g>
  <path d="m48.084999,335.315002c-0.341999,1.036011 -15.839001,48.519012 -15.839001,64.938995c0,24.125 10.895,58.587006 35.777004,73.440002c43.027,25.688019 67.275002,-62.992981 163.643013,18.14502c14.013,11.79599 32.646973,29.853973 49.233002,37.337982c28.85199,13.014038 65.158997,0.497986 75.951996,-18.934998c22.046997,-39.690002 12.320007,-73.464996 6.729004,-87.722992c-4.895996,-12.492004 -39.118011,-76.369995 -50.593994,-97.69101c-21.963013,6.001007 -49.863007,-1.143982 -80.406998,-23.372986c-16.09201,-11.716003 -31.818008,-25.838013 -44.83902,-40.979004c0,0 2.746017,-8.32901 6.940018,-11.428009c3.414001,-2.523987 10.326004,-3.452988 10.326004,-3.452988c3.807999,4.418991 69.50499,77.138992 107.972977,54.766983c39.781006,-23.134979 21.619995,-109.229996 20.674011,-113.290985c0,0 6.276001,-5.027008 11.10199,-5.96701c4.261993,-0.828995 11.101013,0.810013 11.101013,0.810013s5.971985,25.634995 5.520996,54.998993c-0.562012,36.542007 -10.990997,62.934006 -28.199005,77.339981c4.622009,8.588013 12.794006,23.813019 21.296997,39.894012c29.644012,56.040009 58.903015,101.26001 22.302002,167.160004c-17.513,31.530029 -67.501984,45.674011 -105.251007,28.643982c-41.299988,-18.634949 -79.914993,-83.543976 -128.542984,-67.949982c-28.80201,9.238007 -54.94001,30.188995 -86.639996,11.261993c-34.733011,-20.730988 -46.888011,-65.037994 -46.888011,-93.007996c0,-17.924988 10.996999,-53.924988 16.985,-72.080017c0,0 7.928001,-0.971985 12.518002,0.71402c4.085999,1.498993 9.126999,6.425995 9.126999,6.425995l-0.000011,0z" id="svg_144"/>
  <path fill="#FFFFFF" d="m46.900002,476.701996c0,0 7.272999,12.356995 26.612999,16.414001c10.764,2.257996 24.352997,1.130005 24.352997,1.130005s-16.959999,-2.067993 -27.177994,-5.649017c-9.789005,-3.431 -23.788002,-11.894989 -23.788002,-11.894989" id="svg_146"/>
  <path fill="#FFFFFF" d="m361.166992,524.247986c18.67099,-16.414001 20.402008,-45.285004 20.402008,-45.285004s7.871979,24.354004 -14.753021,48.141022c-22.623993,23.789001 -47.543976,15.282959 -47.543976,15.282959s21.709991,-0.392944 41.894989,-18.138977" id="svg_147"/>
  <path fill="#FFFFFF" d="m258.104004,309.648987c0,0 19.269989,14.154999 48.705994,10.768005c0,0 -1.690979,-3.355011 -15.277985,-3.955017c-13.589996,-0.597992 -19.839996,-4.551971 -22.661011,-5.681c-2.822998,-1.131989 -10.766998,-1.131989 -10.766998,-1.131989" id="svg_148"/>
  <path fill="#BCBEC0" d="m147.334,200.330002l19.115997,23.604004c0,0 1.923004,-9.990005 12.102005,-3.20401l-19.199997,-21.837997c0,0 -7.416,-6.703003 -12.018005,1.438004z" id="svg_149"/>
  <path fill="none" stroke="#000000" stroke-width="1.629" stroke-miterlimit="3.864" d="m147.334,200.330002l19.115997,23.604004c0,0 1.923004,-9.990005 12.102005,-3.20401l-19.199997,-21.837997c0,0 -7.416,-6.703003 -12.018005,1.438004z" id="svg_150"/>
  <path fill="#D1D3D4" d="m352.354004,185.979004l-13.067017,5.172989c-42.276978,-143.582993 -87.510986,-175.360003 -94.201981,-178.226003c-6.696991,-2.87 -46.983002,6.246011 -46.983002,6.246011l-6.218994,-11.941001c0,0 32.714996,-7.28601 41.914001,-6.33c9.199005,0.956 16.848999,0 25.093002,9.2c8.243988,9.19899 43.96701,37.709002 77.185974,127.372007c8.383026,22.622986 13.904022,39.273987 16.278015,48.505997z" id="svg_151"/>
  <path fill="#BCBEC0" d="m331.190002,171.720993c2.526001,-18.468002 11.898987,-19.479996 11.898987,-19.479996l-9.653992,-26.608009c0,0 -14.147003,-8.812996 -14.988007,12.18l12.743011,33.908005z" id="svg_153"/>
  <path fill="none" stroke="#000000" stroke-width="1.629" stroke-miterlimit="3.864" d="m331.190002,171.720993c2.526001,-18.468002 11.898987,-19.479996 11.898987,-19.479996l-9.653992,-26.608009c0,0 -14.147003,-8.812996 -14.988007,12.18l12.743011,33.908005z" id="svg_154"/>
  <path fill="#FFFFFF" d="m253.623001,16.472c0,0 17.383987,10.288 29.403,30.016998c12.016998,19.732002 25.376007,47.791 25.376007,47.791s-26.082001,-45.614998 -34.713013,-57.125999c-5.029999,-6.705999 -20.065994,-20.681999 -20.065994,-20.681999" id="svg_155"/>
  <path fill="#FFFFFF" d="m203.598007,25.688999c-2.886002,3.848001 -20.595993,14.949001 -27.330994,16.549999c-6.731003,1.604 -9.817001,-2.564999 -11.742996,-6.09c-1.923004,-3.528 -5.017014,-16.769999 2.246994,-21.238998c13.022995,-8.016 27.649994,-10.581 27.649994,-10.581s12.700989,3.327 9.177002,21.359999" id="svg_156"/>
  <g id="svg_157">
   <defs>
    <path id="XMLID_31_" d="m203.598007,25.688999c-2.886002,3.848001 -20.595993,14.949001 -27.330994,16.549999c-6.731003,1.604 -9.817001,-2.564999 -11.742996,-6.09c-1.923004,-3.528 -5.017014,-16.769999 2.246994,-21.238998c13.022995,-8.016 27.649994,-10.581 27.649994,-10.581s12.700989,3.327 9.177002,21.359999"/>
   </defs>
   <clipPath id="XMLID_48_">
    <use xlink:href="#XMLID_31_" id="svg_158"/>
   </clipPath>
   <ellipse clip-path="url(#XMLID_48_)" fill="none" stroke="#000000" stroke-width="1.629" stroke-miterlimit="3.864" cx="171.039" cy="28.196" rx="10.039" ry="14.568" id="svg_159"/>
  </g>
  <path d="m169.013,28.195999c0,-2.979 1.266998,-5.393 2.828003,-5.393c1.55899,0 2.824997,2.414 2.824997,5.393c0,2.975 -1.266006,5.389 -2.824997,5.389c-1.561996,-0.000999 -2.828003,-2.414999 -2.828003,-5.389z" id="svg_161"/>
  <path fill="none" stroke="#000000" stroke-width="1.629" stroke-miterlimit="3.864" d="m169.013,28.195999c0,-2.979 1.266998,-5.393 2.828003,-5.393c1.55899,0 2.824997,2.414 2.824997,5.393c0,2.975 -1.266006,5.389 -2.824997,5.389c-1.561996,-0.000999 -2.828003,-2.414999 -2.828003,-5.389z" id="svg_162"/>
  <g id="svg_163">
   <path fill="none" stroke="#000000" stroke-width="1.629" stroke-miterlimit="3.864" d="m145.210007,22.162001c0,0 10.139999,0.640999 12.064011,14.307001c1.922989,13.665997 -0.962006,13.343998 -0.962006,13.343998s-11.425995,6.264999 -29.575005,8.856998c-4.487,0.642002 -8.855995,-8.656998 -10.136993,-12.382999c-1.283005,-3.725998 -3.088005,-9.176998 1.601997,-12.062c4.687988,-2.885998 15.587982,-8.856998 27.007996,-12.062998z" id="svg_137"/>
   <path fill="none" stroke="#000000" stroke-width="1.629" stroke-miterlimit="3.864" d="m114.676003,41.278999c2.124001,0 -26.368004,8.855999 -35.868004,34.264c-7.836998,20.966003 25.574005,91.266998 116.100998,186.281006l7.729004,-12.161011c-90.527,-95.016998 -122.548004,-154.164993 -112.407997,-174.121002c10.137993,-19.958004 31.697998,-23.166 29.574997,-23.166c0,0 2.002998,-3.646004 0.841003,-7.050003c-1.162003,-3.405998 -5.970001,-4.046997 -5.970001,-4.046997l0,0.000008z" id="svg_143"/>
   <path fill="none" stroke="#000000" stroke-width="1.629" stroke-miterlimit="3.864" d="m48.084999,335.315002c-0.341999,1.036011 -15.839001,48.519012 -15.839001,64.938995c0,24.125 10.895,58.587006 35.777004,73.440002c43.027,25.687988 67.275002,-62.993011 163.642998,18.144989c14.013,11.796021 32.646988,29.854004 49.232986,37.338013c28.85202,13.013977 65.159027,0.497986 75.952026,-18.934998c22.046997,-39.690002 12.319977,-73.464996 6.728973,-87.722992c-4.895996,-12.492004 -39.117981,-76.370026 -50.593994,-97.69101c-21.962982,6.001007 -49.863007,-1.144012 -80.406998,-23.373016c-16.091995,-11.715973 -31.817993,-25.837982 -44.838989,-40.978973c0,0 2.745987,-8.32901 6.939987,-11.428009c3.414001,-2.524002 10.326004,-3.453003 10.326004,-3.453003c3.807999,4.419006 69.50499,77.139008 107.973007,54.766998c39.781006,-23.13501 21.619995,-109.229996 20.674011,-113.291c0,0 6.27597,-5.026993 11.10199,-5.966995c4.261993,-0.82901 11.100983,0.809998 11.100983,0.809998s5.972015,25.634995 5.521027,54.998993c-0.562012,36.541992 -10.991028,62.93399 -28.199005,77.339996c4.621979,8.588013 12.793976,23.813019 21.296997,39.894012c29.643982,56.040009 58.902985,101.26001 22.302002,167.160004c-17.513,31.529968 -67.502014,45.674011 -105.251007,28.643982c-41.300003,-18.63501 -79.915009,-83.543976 -128.542999,-67.949982c-28.802002,9.238007 -54.940002,30.188995 -86.640003,11.261993c-34.732998,-20.730988 -46.887988,-65.037994 -46.887988,-93.007996c0,-17.925018 10.996989,-53.925018 16.98499,-72.080017c0,0 7.927999,-0.971985 12.518,0.71402c4.085999,1.498993 9.126999,6.425995 9.126999,6.425995l0,0z" id="svg_145"/>
   <path fill="none" stroke="#000000" stroke-width="1.629" stroke-miterlimit="3.864" d="m352.354004,185.979004l-13.067017,5.172989c-42.276978,-143.582993 -87.510986,-175.360003 -94.201981,-178.226003c-6.696991,-2.87 -46.983002,6.246011 -46.983002,6.246011l-6.218994,-11.941001c0,0 32.714996,-7.28601 41.914001,-6.33c9.199005,0.956 16.848999,0 25.093002,9.2c8.243988,9.19899 43.96701,37.709002 77.185974,127.372007c8.383026,22.622986 13.904022,39.273987 16.278015,48.505997z" id="svg_152"/>
   <path fill="none" stroke="#000000" stroke-width="1.629" stroke-miterlimit="3.864" d="m203.598007,25.688999c-2.886002,3.848001 -20.595993,14.949001 -27.330994,16.549999c-6.731003,1.604 -9.817001,-2.564999 -11.742996,-6.09c-1.923004,-3.528 -5.017014,-16.769999 2.246994,-21.238998c13.022995,-8.016 27.649994,-10.581 27.649994,-10.581s12.700989,3.327 9.177002,21.359999z" id="svg_160"/>
  </g>
 </g>
</svg>